<svg xmlns="http://www.w3.org/2000/svg" viewBox="0 0 1440 320">
    <path
      fill="#9ed8db"
      fill-opacity="1"
      d="M0,160L48,176C96,192,192,224,288,224C384,224,480,192,576,160C672,128,768,96,864,96C960,96,1056,128,1152,144C1248,160,1344,160,1392,160L1440,160L1440,320L1392,320C1344,320,1248,320,1152,320C1056,320,960,320,864,320C768,320,672,320,576,320C480,320,384,320,288,320C192,320,96,320,48,320L0,320Z"
      data-darkreader-inline-fill=""
      style="--darkreader-inline-fill: #80003a"
    ></path>
  </svg>